<svg width="24" height="24" viewBox="0 0 24 24" fill="none" xmlns="http://www.w3.org/2000/svg">
<circle cx="16" cy="10" r="2.5" stroke="black" stroke-opacity="0.87"/>
<path fill-rule="evenodd" clip-rule="evenodd" d="M2 6C2 4.89543 2.89543 4 4 4H20C21.1046 4 22 4.89543 22 6V18C22 18.7924 21.5392 19.4772 20.8709 19.8009L22 23H17.5L17 20H15L14.5 23H10L11.0588 20H4C2.89543 20 2 19.1046 2 18V6ZM17.182 6.36221L16 5L14.818 6.36221L13.0611 5.95492L12.9055 7.75172L11.2447 8.45492L12.175 10L11.2447 11.5451L12.9055 12.2483L13.0611 14.0451L13.939 13.8416L11 22H14L15.898 14.8825L16 15L16.102 14.8825L18 22H21L18.061 13.8416L18.9389 14.0451L19.0945 12.2483L20.7553 11.5451L19.825 10L20.7553 8.45492L19.0945 7.75172L18.9389 5.95492L17.182 6.36221ZM4 8C4 7.44772 4.44772 7 5 7H10C10.5523 7 11 7.44772 11 8C11 8.55228 10.5523 9 10 9H5C4.44772 9 4 8.55228 4 8ZM4 11C4 10.4477 4.44772 10 5 10H10C10.5523 10 11 10.4477 11 11C11 11.5523 10.5523 12 10 12H5C4.44772 12 4 11.5523 4 11ZM5 13C4.44772 13 4 13.4477 4 14C4 14.5523 4.44772 15 5 15H10C10.5523 15 11 14.5523 11 14C11 13.4477 10.5523 13 10 13H5Z" fill="black" fill-opacity="0.87"/>
</svg>
