<?xml version="1.0" encoding="UTF-8"?>
<svg width="20px" height="20px" viewBox="0 0 20 20" version="1.1" xmlns="http://www.w3.org/2000/svg" xmlns:xlink="http://www.w3.org/1999/xlink">
    <g id="help_enabled" stroke="none" stroke-width="1" fill="none" fill-rule="evenodd">
        <g id="02.-Buttons/f.-Tooltip-button/01.-Blue-on-blue---hover" transform="translate(-2.000000, -2.000000)" fill="#006E96">
            <circle id="Oval" fill-opacity="0.08" cx="12" cy="12" r="10"></circle>
            <path d="M10.8606919,16.0039274 L12.8606919,16.0039274 L12.8606919,18.0039274 L10.8606919,18.0039274 L10.8606919,16.0039274 Z M12.4706919,6.04392738 C10.4106919,5.74392738 8.59069187,7.01392738 8.04069187,8.83392738 C7.86069187,9.41392738 8.30069187,10.0039274 8.91069187,10.0039274 L9.11069187,10.0039274 C9.52069187,10.0039274 9.85069187,9.71392738 9.99069187,9.33392738 C10.3106919,8.44392738 11.2606919,7.83392738 12.2906919,8.05392738 C13.2406919,8.25392738 13.9406919,9.18392738 13.8606919,10.1539274 C13.7606919,11.4939274 12.2406919,11.7839274 11.4106919,13.0339274 C11.4106919,13.0439274 11.4006919,13.0439274 11.4006919,13.0539274 C11.3906919,13.0739274 11.3806919,13.0839274 11.3706919,13.1039274 C11.2806919,13.2539274 11.1906919,13.4239274 11.1206919,13.6039274 C11.1106919,13.6339274 11.0906919,13.6539274 11.0806919,13.6839274 C11.0706919,13.7039274 11.0706919,13.7239274 11.0606919,13.7539274 C10.9406919,14.0939274 10.8606919,14.5039274 10.8606919,15.0039274 L12.8606919,15.0039274 C12.8606919,14.5839274 12.9706919,14.2339274 13.1406919,13.9339274 C13.1606919,13.9039274 13.1706919,13.8739274 13.1906919,13.8439274 C13.2706919,13.7039274 13.3706919,13.5739274 13.4706919,13.4539274 C13.4806919,13.4439274 13.4906919,13.4239274 13.5006919,13.4139274 C13.6006919,13.2939274 13.7106919,13.1839274 13.8306919,13.0739274 C14.7906919,12.1639274 16.0906919,11.4239274 15.8206919,9.51392738 C15.5806919,7.77392738 14.2106919,6.30392738 12.4706919,6.04392738 L12.4706919,6.04392738 Z" id="Mask"></path>
        </g>
    </g>
</svg>